<svg width="20" height="20" xmlns="http://www.w3.org/2000/svg" viewBox="0 0 817.4 817.48"><defs><style>.cls-1{fill:#fbff00;}</style></defs><path class="cls-1" d="M0,408C-.24,183.92,183.36.33,408,0S817.35,183.21,817.4,406.76c0,227.27-182.47,410.53-409,410.72C183.23,817.67.24,634.19,0,408ZM408.83,645.62c130.73-.06,236.32-106.44,236.69-238.46.35-128.16-106.87-235-236.13-235.28-129.52-.29-237.26,105.76-237.57,233.82C171.5,538.48,277.39,645.67,408.83,645.62ZM146,400.35c3.36-62.7,25-117.23,63.78-162.62l-85.14-86.16C62.32,222.09,28.59,304.25,25.94,400.35ZM423.17,26.23V146.54C487,150.91,541,175,584.13,213.42L670,128.64C601.13,65.42,519.32,30.28,423.17,26.23ZM394.81,671c-61.65-4.45-114.07-26.58-158.52-64.44l-85.43,85.54c69.41,61.74,150.06,95.36,244,99.14Zm208.4-86.35,84.87,86.16C750.61,602.46,786,522.27,790.72,427.66H670.48C664.93,488.69,642.08,541.51,603.21,584.67ZM449.67,692c10.25,0,16.35,0,22.45,0,15.55.12,26.36,7.63,31.49,22.06,5.21,14.65.14,26.63-11.11,36.95-4.38,4-7.12,9.84-10.61,14.85,6.83-2,13.89-3.42,20.41-6.14,3-1.26,4.95-5,7.42-7.62,18.7-19.51,41.37-27.78,68.33-24.71,11.14,1.27,23.51,5.19,32.89-12.45-8.2,0-13.54-.22-18.85,0-17.18.84-29.12-6.84-34.35-22.94-5-15.52.65-28.12,13.84-37.4,1.46-1,3.8-1.4,4.53-2.74,1.74-3.18,2.76-6.75,4.06-10.17-3.73-.27-8.35-2-11-.49a74.18,74.18,0,0,0-16.57,13.29c-19.09,20.39-42.48,28.29-69.87,25.09C471.6,678.34,460.3,675.56,449.67,692ZM725.81,239.65c-2.21.72-8.12,1.28-12,4.36-3.34,2.65-4.38,8.2-6.43,12.47,4.19.32,9.06,2.17,12.45.67,11.24-5,21.65-3.37,25.3,7.77,2.11,6.43-1.28,18.18-6.43,22.68-9.22,8.06-18.82,2.21-26-6.55C703.61,270,695,258.45,685,248.18c-5.48-5.66-13.22-9.14-19.94-13.6,2.7,7.45,4,15.88,8.4,22.15,8.53,12.19,18.86,23.11,28.3,34.67,7.26,8.87,10,19.47.23,26.78-5.26,3.92-16.61,5-22.28,1.9-10.36-5.6-10.43-15.87-4-26.32,2.14-3.48,1-8.95,1.4-13.51-4.88,2.19-11.39,3.08-14.36,6.8-11.69,14.59-7,36.48,9.1,46.83,16.49,10.61,39.31,5.16,47.19-13,4.16-9.58,8.08-14.75,19.28-16.54,16.69-2.67,27.08-20.14,24.41-36.37C760,251,745.93,239.19,725.81,239.65ZM295.33,84.23C281.81,98.9,281.81,98.9,262.24,96.59a35.26,35.26,0,0,0-39.08,33.2c-.93,20,16,36.66,36.42,35.86,19.69-.77,37.67-18.49,32.46-36.83s3.68-26.35,14-34.07l17.19,2.09c-.48-5.29-1-10.58-1-11.32,2.13-10.4,3.48-17,4.84-23.61l-19.1,6.34-16-2ZM94.22,465.42l-5.15-5.59L60.22,482.71l21.59,17.46L53.72,507.4l35,30.64L60.05,551.79c15.9,13.83,29.11,25.34,42.33,36.85l6.08-5.54L82.91,554.61l27.62-13.85L81.19,515l31.28-7.74c-13.79-10.4-23.38-17.64-33-24.89Zm8.55,50.95L139.36,547l-29.29,14.22c17.3,12.41,27.11,28.68,44.41,35.17l6.91-7.42-33.61-18.81,5.87-6.42L161,550.34l-29.64-26.18L162.7,517l-32.24-25.1,13.21-18.58-5.16-4.7c-8.92,7.26-17.85,14.51-28,22.76l22,18.6Z"/><path class="cls-1" d="M392.87,287.59c22.42-18.8,48.58-29.35,78.55-27.73C530,263,574,308,575.61,367c.28,10,3,15.75,11,21.89C621.86,415.84,627.68,467,598,500.2c-25.08,28-52.3,54.17-79.57,80.09-18,17.14-42.91,16.56-61.91.36-8.1-6.9-15.49-14.66-22.9-21.74-43.81,21.62-62.35,18.55-96.35-15.44-32.12-32.11-65-63.53-96.13-96.55-59.62-63.19-32-163.89,49.9-184.06C324.06,254.71,351.14,261.18,392.87,287.59Zm23.66,251.3c-13.21-12.37-24.59-21.91-34.66-32.68-28.82-30.79-31.38-73.64-6.92-104.71,24.74-31.44,65.87-38.59,103.2-18.24,3.77,2.05,9.07,4.33,12.63,3.21,18.91-5.91,37.49-12.87,57.88-20.07,3.09-26.92-14.86-57.5-45.29-72.54-31.49-15.56-71.94-9.54-96,16C397,321,389.72,322.64,378,311.57c-36.11-34.18-86.4-34.72-119-2.38-33.23,33-33.33,84.9,1.16,120.81,33.95,35.33,69.12,69.47,103.78,104.11C378.11,548.21,394,549.48,416.53,538.89Z"/><path class="cls-1" d="M134.59,252.21,128.38,295l18.93,5.66-.14,4.46-18.69,5.44c2,14.25,4.06,28.67,6.1,43.09L127,355.18l-11.48-45.73H94.1q-5.22,22.64-10.47,45.41l-8-1.06,5.83-43.13L62.69,305c0-1.47,0-2.94,0-4.41l18.75-5.54c-2-14.13-4.06-28.51-6.11-42.9L83,250.68c3.71,14.8,7.42,29.6,11.47,45.73h21.29c3.63-15.41,7.2-30.54,10.77-45.67Z"/><path class="cls-1" d="M538,108.88l22-9.3c-.31,6.83-.63,13.67-1.05,22.86,3.2,2.31,9.46,5.93,14.47,10.83,2.29,2.25,2.13,7,3.08,10.63-3.74.44-8.07,2.28-11.08,1-5.93-2.5-11.14-6.72-15.22-9.33L528.75,145c.33-6.51.66-13,1.16-23-2.91-2.06-8.49-6.15-14.21-10-5.3-3.61-10.75-7-17.44-11.33,0,4.71.65,7.7-.15,10.22-1.27,4-3.52,7.61-5.36,11.39-3.08-2.87-6.37-5.57-9.15-8.72-1-1.17-.91-3.39-1.32-5.13-7.47-31.59,1-41.72,33.84-39.81,3,.17,5.77,3.06,8.65,4.7-1.83,3.15-3,7.17-5.67,9.24-2.94,2.27-7.28,2.75-12.93,4.66Z"/><path class="cls-1" d="M227.23,687.26c14.56-5.79,27.86-12,41.72-16.42,24.33-7.8,49.24,9.18,51.51,34.91.73,8.24-1.45,16.74,9.72,20,1.93.56,2.55,5.58,3.78,8.54-3,.87-6.72,3.31-9,2.36-10.17-4.37-22.83-5.34-18.59-23.91,1.77-7.79-6.81-21-14.39-27.1-10.3-8.33-22.57-3.91-32,5.54C247.48,703.69,237.82,702.13,227.23,687.26Z"/><path class="cls-1" d="M324.88,756.22c-5-.79-10.53-.53-15-2.54q-41.65-18.7-82.81-38.51c-4-1.92-6.41-7-9.55-10.63,4.55-.46,9.9-2.71,13.54-1.1,28.93,12.81,57.58,26.25,86.19,39.76,3.45,1.63,6.18,4.81,9.25,7.27Z"/><path class="cls-1" d="M672.31,498.58c-5-15.46,4.19-20.21,14.48-21.25,13.44-1.36,21.06,6.88,22.64,20,.4,3.3-2.17,6.89-2.12,10.33.09,5.18,1.29,10.35,2,15.53,4.42-2.75,8.75-5.65,13.26-8.22,7.7-4.39,15.32-11.31,23.33-11.86,5.11-.35,12.94,7.94,15.67,14.09,2.07,4.65-2,12-3.31,18.2l-6.07-1c-.82-3.11-1.23-6.42-2.57-9.29-1.58-3.36-3.69-8.62-6.08-8.91-2.93-.36-8,2.86-9.3,5.78-3.79,8.76-4.86,18.87-9.45,27.07-5.07,9.07-11.3,19.7-19.87,24-10.78,5.45-24.51.12-28-11.82-2.73-9.29.57-21.12,3.56-31.12,2.47-8.28,9.15-15.23,12.5-23.37,1.73-4.19.26-9.69.24-14.6-4.65,1.34-9.31,2.65-14,4C677.62,496.67,676,497.29,672.31,498.58Zm46.32,51c-9.26-7-14.56-14.14-19.17-13.72-4.94.46-11.63,7.42-12.9,12.67-.79,3.23,6.86,11.77,11.23,12.14C702.91,561.16,708.58,555.35,718.63,549.62Z"/><path class="cls-1" d="M540.22,681.6c4.23,11.67,7.81,21.5,11.89,32.73l-30.45,11.3-12.22-32.57Z"/><path class="cls-1" d="M261.92,107.41c5.71,7.69,14.68,14.74,16.35,23.22,2.33,11.92-6.55,19.94-19,21.2-11.6,1.18-24.36-9.86-21.54-20.68,2.26-8.67,10.36-15.82,15.87-23.64Z"/></svg>